<?xml version="1.0" encoding="utf-8"?>
<!-- Generator: Adobe Illustrator 16.0.0, SVG Export Plug-In . SVG Version: 6.00 Build 0)  -->
<!DOCTYPE svg PUBLIC "-//W3C//DTD SVG 1.1//EN" "http://www.w3.org/Graphics/SVG/1.1/DTD/svg11.dtd">
<svg version="1.1" id="icons" xmlns="http://www.w3.org/2000/svg" xmlns:xlink="http://www.w3.org/1999/xlink" x="0px" y="0px"
	 width="64px" height="64px" viewBox="0 0 64 64" enable-background="new 0 0 64 64" xml:space="preserve">
<g>
	<path d="M4.001,61.512h55.998c2.206,0,4-1.794,4-4v-1c0-0.553-0.447-1-1-1h-1v-4.99C61.998,35.107,50.31,22.377,35.332,20.715
		c0.42-0.633,0.667-1.39,0.667-2.205c0-2.206-1.794-4-4-4s-4,1.794-4,4c0,0.815,0.247,1.572,0.668,2.205
		C13.69,22.38,2.004,35.108,2.003,50.521v4.99h-1H1.002H1.001c-0.553,0-1,0.447-1,1v1C0.001,59.718,1.795,61.512,4.001,61.512z
		 M31.999,16.51c1.103,0,2,0.897,2,2s-0.897,2-2,2s-2-0.897-2-2S30.896,16.51,31.999,16.51z M4.003,50.523
		c0-15.438,12.56-27.998,27.998-27.998s27.998,12.56,27.998,27.998v4.988H4.003V50.523z M61.999,57.512c0,1.103-0.897,2-2,2H4.001
		c-1.103,0-2-0.897-2-2H61.999z"/>
	<path d="M31.987,24.51c-0.553,0-1,0.447-1,1s0.447,1,1,1c13.24,0,24.012,10.771,24.012,24.012c0,0.553,0.447,1,1,1s1-0.447,1-1
		C57.999,36.179,46.33,24.51,31.987,24.51z"/>
	<path d="M17.285,18.226c0.196,0.203,0.458,0.306,0.72,0.306c0.25,0,0.501-0.093,0.694-0.28c1.254-1.211,2.892-4.51,0.114-8.329
		c-2.383-3.276-0.357-5.471-0.11-5.718c0.394-0.385,0.403-1.015,0.021-1.41c-0.383-0.396-1.018-0.409-1.414-0.025
		c-1.254,1.211-2.892,4.51-0.114,8.329c2.388,3.283,0.349,5.479,0.114,5.714C16.913,17.195,16.902,17.828,17.285,18.226z"/>
	<path d="M45.25,18.226c0.196,0.203,0.458,0.306,0.72,0.306c0.25,0,0.501-0.093,0.694-0.28c1.254-1.211,2.892-4.51,0.114-8.329
		c-2.383-3.276-0.357-5.471-0.11-5.718c0.394-0.385,0.403-1.015,0.021-1.41c-0.383-0.396-1.018-0.409-1.414-0.025
		c-1.254,1.211-2.892,4.51-0.114,8.329c2.388,3.283,0.349,5.479,0.114,5.714C44.878,17.195,44.867,17.828,45.25,18.226z"/>
	<path d="M32.721,2.794c-0.383-0.396-1.018-0.409-1.414-0.025c-1.254,1.211-2.892,4.51-0.114,8.329c0.195,0.27,0.5,0.412,0.81,0.412
		c0.204,0,0.409-0.063,0.587-0.191c0.447-0.324,0.546-0.95,0.221-1.396c-2.384-3.278-0.354-5.474-0.109-5.719
		C33.093,3.819,33.103,3.189,32.721,2.794z"/>
</g>
</svg>
