<?xml version="1.0" encoding="iso-8859-1"?>
<!-- Generator: Adobe Illustrator 21.0.2, SVG Export Plug-In . SVG Version: 6.00 Build 0)  -->
<svg version="1.1" xmlns="http://www.w3.org/2000/svg" xmlns:xlink="http://www.w3.org/1999/xlink" x="0px" y="0px"
	 viewBox="0 0 64 64" style="enable-background:new 0 0 64 64;" xml:space="preserve">
<g id="_x32_5_vegetables">
</g>
<g id="_x32_4_cupcake">
	<g>
		<g>
			<path d="M26.7042,12.7069h-0.0449c-0.5527,0-1-0.4477-1-1c0-0.5522,0.4473-1,1-1s1.0224,0.4477,1.0224,1
				C27.6817,12.2592,27.2569,12.7069,26.7042,12.7069z"/>
		</g>
		<g>
			<path d="M23.0988,15.8045H23.051c-0.5527,0-1-0.4477-1-1c0-0.5522,0.4473-1,1-1s1.0244,0.4477,1.0244,1
				C24.0754,15.3568,23.6515,15.8045,23.0988,15.8045z"/>
		</g>
		<g>
			<path d="M27.8585,17.3357h-0.0449c-0.5527,0-1-0.4477-1-1c0-0.5522,0.4473-1,1-1s1.0224,0.4477,1.0224,1
				C28.836,16.888,28.4112,17.3357,27.8585,17.3357z"/>
		</g>
		<path d="M59.7924,36.788c-0.0888-0.5224-0.2512-1.0193-0.4657-1.4927c2.3414-7.335-0.4394-14.3309-4.4853-17.5128
			c-0.0801-0.0628-0.1672-0.1271-0.2563-0.1894c0.906-2.4735,0.6355-5.3742-0.8481-7.5672
			c-1.3297-1.9656-3.3758-2.9875-5.7479-2.9107c0.5309-2.1068,1.7265-3.7162,3.1894-4.157
			c0.5293-0.1592,0.8291-0.7173,0.6689-1.2461c-0.1582-0.5278-0.7148-0.831-1.2451-0.6689
			c-2.1964,0.6618-3.9086,2.8413-4.5918,5.7157c-1.7606-0.7528-3.2441-0.6966-4.3819-0.3589
			C36.6028,3.5128,29.725,2.9193,23.9533,4.9141c-3.6366,1.2563-8.4744,4.1029-10.8728,10.5296
			c-0.626,1.6811-0.8506,2.6694-0.9433,3.2822c-0.4531,0.1035-1.1504,0.3193-2.2353,0.8188
			C4.9401,21.8288,2.4009,29.909,4.6935,35.7901c-0.4118,1.1681-0.4364,2.1813,0.0248,3.3201l7.9159,19.6061
			c1.167,2.8925,1.915,4.2831,6.1229,4.2831h26.8383c4.0761,0,4.8183-1.3901,5.9882-4.2826l7.9178-19.6119
			c0.3428-0.8462,0.4746-1.2329,0.29-2.3173L59.7924,36.788z M41.0164,8.8906c0.6875-0.4858,1.4453-0.728,2.2558-0.728
			c0.9287,0,1.9257,0.3193,2.9599,0.9565c0.2178,0.1343,0.4766,0.1792,0.7265,0.1279c2.1699-0.4482,3.9902,0.2266,5.122,1.8994
			c1.3642,2.017,1.3779,4.956,0.0332,6.9881c-1.4804,2.2387-4.331,3.0732-8.0096,2.353c-3.9286-0.7681-5.0497-3.3808-5.369-4.8695
			C38.1844,13.0424,39.1434,10.2128,41.0164,8.8906z M18.7571,60.9994c-3.0449,0-3.2558-0.522-4.2675-3.0317L6.5718,38.3583
			c-0.6427-1.5848,0.5053-3.247,1.7675-4.1684c1.4495-1.0581,3.3274-1.5307,5.1045-1.5307c3.0293,0,6.4849,1.3832,7.2962,5.2797
			l2.7564,23.0606H18.7571z M25.511,60.9994l-2.7744-23.2106c0.5504-4.2361,5.3693-5.7449,9.363-5.7449
			c0.0068,0,0.0127-0.0005,0.0225,0c3.9859,0,8.7908,1.5035,9.3538,5.7205l-4.1434,23.235H25.511z M57.6479,38.3529l-7.9188,19.6148
			c-1.0146,2.5092-1.2256,3.0317-4.1337,3.0317h-6.2316l4.1087-23.0401c0.8177-3.9839,4.4267-5.3358,7.4637-5.2992
			c3.0527,0.0498,6.3973,1.5991,6.8836,4.4628l0.001,0.0005C57.9165,37.6903,57.9165,37.6903,57.6479,38.3529z M57.8213,33.2013
			c-1.6157-1.5379-4.0522-2.4953-6.8519-2.5411c-2.9941-0.0552-6.5389,1.0698-8.4061,4.1606
			c-1.8974-3.2787-6.2675-4.7768-10.4402-4.7768c-0.0088,0.0005-0.0146,0.001-0.0244,0c-4.1737,0-8.5457,1.499-10.4432,4.7787
			c-1.8672-3.0903-5.4335-4.2216-8.4022-4.1615c-2.9916,0.0474-5.5684,1.1363-7.1729,2.8632
			c-1.1125-4.9978,1.3471-10.6391,4.6573-12.1628c1.3838-0.6367,1.957-0.7153,2.2011-0.7485
			c0.9209-0.126,1.0879-0.7143,1.1308-1.2129c0.0273-0.3135,0.0986-1.1465,0.8847-3.2577c2.1259-5.6962,6.4217-8.222,9.6512-9.3382
			c4.7537-1.6418,10.5262-1.3129,14.9099,0.7482c-2.2597,1.8523-3.412,5.3247-2.7353,8.484
			c0.7178,3.3539,3.247,5.6918,6.9393,6.4139c1.0537,0.2061,2.0087,0.2969,2.8749,0.2969c4.0055-0.0005,6.08-1.9341,7.0669-3.3439
			C56.8608,21.9621,59.1038,27.3357,57.8213,33.2013z"/>
		<g>
			<path d="M31.4541,14.6776h-0.0488c-0.5527,0-1-0.4477-1-1s0.4473-1,1-1c0.5527,0,1.0244,0.4477,1.0244,1
				S32.0068,14.6776,31.4541,14.6776z"/>
		</g>
	</g>
</g>
<g id="_x32_3_chef">
</g>
<g id="_x32_2_grinder">
</g>
<g id="_x32_1_kettle">
</g>
<g id="_x32_0_pouring_water">
</g>
<g id="_x31_9_rolling_pin">
</g>
<g id="_x31_8_mixing">
</g>
<g id="_x31_7_apron">
</g>
<g id="_x31_6_lemon_squeezer">
</g>
<g id="_x31_5_hot_pot">
</g>
<g id="_x31_4_blender">
</g>
<g id="_x31_3_oven">
</g>
<g id="_x31_2_online_recipe">
</g>
<g id="_x31_1_noodle">
</g>
<g id="_x31_0_grilling_meat">
</g>
<g id="_x30_9_chicken">
</g>
<g id="_x30_8_scale">
</g>
<g id="_x30_7_mixer">
</g>
<g id="_x30_6_rice">
</g>
<g id="_x30_5_cutting_board">
</g>
<g id="_x30_4_toast">
</g>
<g id="_x30_3_pour_seasoning">
</g>
<g id="_x30_2_pot">
</g>
<g id="_x30_1_food_serving">
</g>
</svg>
