<svg version="1.0" id="Layer_1" xmlns="http://www.w3.org/2000/svg" xmlns:xlink="http://www.w3.org/1999/xlink" x="0px" y="0px" width="100px" height="100px" viewBox="0 0 100 100" enable-background="new 0 0 100 100" xml:space="preserve">
   <metadata>
      <rdf:RDF xmlns:rdf="http://www.w3.org/1999/02/22-rdf-syntax-ns#">
         <rdf:Description xmlns:dc="http://purl.org/dc/elements/1.1/" rdf:about="">
            <dc:title>
               <rdf:Alt>
                  <rdf:li xml:lang="x-default">French fries</rdf:li>
               </rdf:Alt>
            </dc:title>
            <dc:description>
               <rdf:Alt>
                  <rdf:li xml:lang="x-default"></rdf:li>
               </rdf:Alt>
            </dc:description>
            <dc:subject>
               <rdf:Bag>
                  <rdf:li>french fries</rdf:li>
                  <rdf:li>fries</rdf:li>
                  <rdf:li>fast food</rdf:li>
                  <rdf:li>express food</rdf:li>
                  <rdf:li>food</rdf:li>
               </rdf:Bag>
            </dc:subject>
         </rdf:Description>
      </rdf:RDF>
   </metadata>
<path d="M86.667,36.667V10h-20v6.667H60V10H40v13.334h-6.667v-6.667h-20v20H10l8.158,43.506C19.17,85.576,24.5,90,30,90h40  c5.501,0,10.83-4.424,11.843-9.827L90,36.667H86.667z M73.333,16.667H80v21.455c-2.109,0.843-4.349,1.565-6.667,2.204V16.667z   M60,23.334h6.667v18.514C64.485,42.245,62.259,42.563,60,42.8V23.334z M46.667,16.667h6.667v26.589  c-2.22,0.076-4.446,0.076-6.667,0V16.667z M33.333,30H40v12.8c-2.259-0.237-4.486-0.555-6.667-0.952V30z M20,23.334h6.667v16.992  c-2.316-0.639-4.556-1.361-6.667-2.204V23.334z M70,83.334H30c-2.296,0-4.867-2.133-5.29-4.389l-0.028-0.149  c15.402-7.129,35.229-7.129,50.637,0l-0.029,0.149C74.866,81.201,72.295,83.334,70,83.334z M76.589,72.031  c-16.465-7.103-36.712-7.103-53.174,0l-5.142-27.418C27.354,48.105,38.421,50,50,50c11.582,0,22.646-1.895,31.729-5.386  L76.589,72.031z" />
</svg>
